# xmcd
#
# Track frame offsets: 
#        150
#        17724
#        37374
#        51359
#        64805
#        77026
#        97213
#        111348
#        125832
#        148968
#        164588
#        176908
#        187365
#        201546
#        216282
#        248253
#        260966
#        278890
#        293592
#
# Disc length: 4091 seconds
#
# Revision: 1
# Processed by: cddbd v1.5.2PL0 Copyright (c) Steve Scherf et al.
# Submitted via: ExactAudioCopy v0.95b4
#
DISCID=480ff913
DTITLE=stray cats - alley cat rumble
DYEAR=2006
DGENRE=Rock and Roll
TTITLE0=stray cat strut
TTITLE1=lust'n'love
TTITLE2=mystery train
TTITLE3=summertime blues
TTITLE4=oh boy
TTITLE5=double talkin' baby
TTITLE6=rumble in brighton
TTITLE7=baby what you want me to do?
TTITLE8=rev it up and go
TTITLE9=beautiful delilh
TTITLE10=stray cat strut
TTITLE11=rock around with ollie vee
TTITLE12=fishnet stockings
TTITLE13=jeanie,jeanie,jeanie
TTITLE14=rock this town
TTITLE15=swing cat stomp
TTITLE16=good rockin' tonight
TTITLE17=st.james infirmary
TTITLE18=viva las vegas
EXTD=
EXTT0=
EXTT1=
EXTT2=
EXTT3=
EXTT4=
EXTT5=
EXTT6=
EXTT7=
EXTT8=
EXTT9=
EXTT10=
EXTT11=
EXTT12=
EXTT13=
EXTT14=
EXTT15=
EXTT16=
EXTT17=
EXTT18=
PLAYORDER=
